<?xml version="1.0" standalone="no"?>
<!DOCTYPE svg PUBLIC "-//W3C//DTD SVG 20010904//EN"
 "http://www.w3.org/TR/2001/REC-SVG-20010904/DTD/svg10.dtd">
<svg version="1.0" xmlns="http://www.w3.org/2000/svg"
 width="2424.000000pt" height="2424.000000pt" viewBox="0 0 2424.000000 2424.000000"
 preserveAspectRatio="xMidYMid meet">
<metadata>
Created by potrace 1.11, written by Peter Selinger 2001-2013
</metadata>
<g transform="translate(0.000000,2424.000000) scale(0.100000,-0.100000)"
fill="#000000" stroke="none">
<path d="M2437 16674 c-1 -1 -42 -4 -92 -8 -49 -3 -101 -8 -115 -10 -14 -3
-43 -7 -65 -10 -73 -11 -109 -17 -175 -32 -36 -9 -75 -17 -86 -20 -20 -4 -137
-38 -174 -50 -8 -3 -16 -5 -18 -4 -1 0 -16 -7 -32 -15 -16 -8 -31 -15 -32 -14
-2 0 -16 -5 -33 -12 -16 -7 -34 -13 -40 -15 -19 -4 -60 -25 -120 -60 -33 -19
-70 -40 -82 -46 -13 -6 -23 -15 -23 -20 0 -4 -7 -8 -15 -8 -8 0 -15 -4 -15
-10 0 -5 -5 -10 -11 -10 -35 0 -359 -295 -454 -415 -22 -27 -48 -57 -57 -66
-10 -9 -18 -19 -18 -23 0 -4 -5 -12 -10 -19 -49 -57 -69 -86 -133 -182 -39
-60 -74 -112 -77 -115 -3 -3 -6 -12 -8 -20 -2 -8 -9 -22 -16 -30 -56 -65 -236
-506 -261 -636 -2 -10 -4 -20 -5 -21 -2 -2 -4 -12 -5 -23 -1 -11 -3 -21 -5
-22 -2 -4 -7 -27 -15 -78 -4 -24 -8 -47 -10 -50 -2 -3 -6 -30 -10 -60 -3 -30
-8 -62 -10 -70 -8 -32 -22 -170 -30 -285 -2 -38 -5 -70 -5 -70 -3 0 -11 -212
-14 -361 -2 -94 -6 -176 -10 -182 -3 -6 -3 -13 2 -16 4 -2 7 -24 5 -48 -2 -24
-3 -52 -3 -63 1 -20 1 -35 -1 -57 -1 -7 1 -25 4 -40 3 -15 1 -30 -4 -34 -6 -3
-6 -10 -1 -17 5 -7 6 -21 2 -32 -4 -11 -4 -32 1 -47 4 -16 5 -28 1 -28 -4 0
-7 -11 -7 -25 0 -14 3 -25 6 -25 3 0 4 -12 2 -27 -5 -32 -5 -33 0 -90 2 -24
-1 -43 -6 -43 -4 0 -5 -5 -1 -12 4 -7 9 -91 10 -188 2 -168 9 -324 19 -420 3
-25 7 -67 9 -95 6 -59 13 -106 32 -200 19 -96 23 -111 34 -140 5 -14 7 -25 4
-25 -4 0 1 -11 10 -25 9 -14 14 -25 11 -25 -18 0 148 -365 241 -530 20 -36 66
-110 103 -164 36 -54 71 -106 76 -115 6 -9 16 -20 22 -24 7 -4 13 -13 13 -18
0 -6 6 -16 13 -23 6 -7 28 -32 47 -56 60 -75 251 -264 335 -332 106 -85 230
-166 340 -221 100 -51 203 -97 216 -97 4 0 18 -4 31 -9 13 -5 26 -9 31 -10 4
0 21 -8 37 -16 17 -9 30 -13 30 -11 0 3 12 1 28 -5 15 -6 36 -13 47 -15 11 -2
61 -13 110 -23 50 -11 115 -23 145 -26 30 -3 80 -8 110 -12 116 -13 420 -6
511 12 13 3 38 7 54 10 43 6 87 15 108 21 10 3 30 7 45 9 52 7 251 73 347 115
68 29 179 83 185 90 3 3 26 16 53 30 26 13 47 28 47 32 0 5 3 7 8 6 6 -2 119
69 132 83 3 3 23 18 45 35 22 16 45 34 51 39 6 6 28 24 49 40 32 25 159 145
369 350 23 22 50 47 60 55 17 14 18 13 13 -5 -3 -11 -9 -49 -12 -85 -11 -135
-24 -269 -30 -325 -3 -22 -7 -67 -10 -100 -9 -112 -15 -180 -21 -225 -3 -25
-7 -65 -9 -90 -2 -25 -6 -61 -9 -80 -3 -19 -8 -62 -11 -95 -3 -33 -8 -67 -10
-75 -2 -8 -6 -40 -10 -71 -3 -31 -8 -67 -11 -80 -2 -13 -6 -40 -9 -59 -4 -30
-19 -108 -41 -210 -3 -14 -9 -41 -14 -60 -5 -19 -10 -39 -11 -45 -1 -9 -28
-80 -52 -135 -6 -14 -11 -28 -11 -31 -1 -3 -21 -37 -45 -74 -52 -80 -142 -171
-221 -222 -30 -20 -57 -39 -60 -42 -30 -35 -265 -134 -380 -161 -25 -6 -53
-13 -64 -15 -10 -2 -37 -7 -60 -9 -22 -3 -50 -7 -61 -10 -20 -4 -67 -9 -180
-21 -56 -6 -410 -7 -495 -1 -30 2 -86 7 -125 11 -38 4 -88 9 -110 11 -37 3
-94 10 -170 19 -16 2 -30 4 -30 5 0 1 -9 3 -20 4 -11 2 -38 6 -60 10 -22 3
-58 9 -80 12 -22 4 -49 8 -60 11 -11 2 -42 8 -70 13 -27 5 -84 17 -125 25 -41
9 -86 18 -100 21 -14 2 -122 29 -240 60 -118 30 -226 57 -240 59 -14 3 -77 18
-140 35 -63 17 -125 33 -137 35 -36 8 -65 14 -108 24 -58 13 -86 20 -118 27
-18 4 -29 1 -32 -8 -5 -11 -15 -136 -15 -178 0 -8 0 -61 0 -118 0 -57 -2 -107
-5 -112 -4 -6 -3 -10 2 -10 4 0 8 -30 9 -68 2 -154 12 -361 18 -371 4 -5 2
-12 -4 -16 -6 -4 -8 -11 -4 -16 5 -9 13 -139 18 -294 1 -44 5 -86 9 -93 5 -6
4 -12 -2 -12 -5 0 -8 -10 -6 -21 5 -25 8 -30 27 -33 7 -2 20 -5 28 -9 18 -6
118 -32 210 -53 36 -9 72 -18 80 -21 8 -3 20 -7 25 -8 6 -2 67 -16 135 -33
159 -39 225 -52 297 -55 18 -1 33 -4 33 -7 0 -4 10 -6 23 -6 12 0 45 -4 72 -8
28 -4 70 -9 95 -11 25 -2 70 -6 100 -9 86 -9 179 -16 250 -21 36 -2 103 -7
150 -10 47 -4 138 -8 202 -9 65 0 118 -4 118 -7 0 -5 798 -5 810 0 3 1 52 4
108 6 57 2 129 7 160 10 32 4 73 8 92 10 81 8 149 16 205 26 33 5 76 11 95 13
19 2 35 5 35 6 0 2 31 7 76 14 14 2 35 9 46 15 11 5 23 8 25 5 3 -2 40 5 81
16 42 12 84 23 94 25 43 9 277 94 309 112 12 7 24 9 28 6 3 -3 6 -1 6 5 0 7 6
12 14 12 28 0 263 130 385 214 40 28 80 56 89 61 61 39 232 207 282 278 18 26
37 47 42 47 4 0 8 5 8 10 0 6 23 41 50 79 28 38 50 74 50 80 0 6 4 11 9 11 5
0 11 8 15 18 6 18 27 54 37 62 3 3 32 55 65 115 32 61 63 113 68 117 6 4 8 8
4 8 -4 0 6 26 21 58 37 74 73 153 76 167 1 5 7 24 14 40 16 39 41 107 44 120
2 6 6 16 11 23 4 7 5 16 2 19 -3 3 -1 14 5 25 6 11 13 29 15 41 3 12 7 33 10
47 3 14 7 32 9 40 2 8 4 15 5 15 4 0 9 61 14 175 3 69 9 159 12 200 4 41 7 83
7 93 1 9 4 17 7 17 3 0 6 9 7 20 4 54 65 133 129 166 42 22 106 44 130 44 11
0 24 3 27 6 4 4 24 8 44 9 257 14 421 18 835 18 435 1 486 2 487 16 0 9 2 129
5 266 19 801 28 1275 30 1487 0 115 5 208 10 208 5 0 3 6 -3 13 -6 8 -8 17 -4
20 3 4 8 89 9 189 10 588 12 680 18 685 3 3 1 12 -5 20 -6 7 -8 13 -3 13 5 0
10 53 10 118 2 117 10 322 18 417 8 99 17 206 20 223 2 9 7 40 12 67 11 67 11
69 14 75 1 3 4 14 6 25 6 36 9 50 17 63 5 7 10 23 13 36 6 34 70 145 144 250
8 12 33 38 55 59 22 21 54 50 70 66 41 39 266 199 340 241 33 19 69 40 80 47
11 7 46 24 78 39 31 15 57 31 57 36 0 4 8 8 18 8 10 0 22 4 27 8 18 16 133 61
139 55 3 -4 6 -1 6 5 0 7 3 11 8 10 4 -1 27 4 51 11 62 18 132 16 146 -3 14
-18 8 -165 -10 -236 0 -3 -4 -27 -9 -53 -4 -27 -9 -59 -12 -70 -2 -12 -6 -33
-9 -47 -5 -28 -21 -104 -28 -135 -4 -20 -11 -55 -23 -130 -4 -22 -8 -59 -8
-82 -1 -24 -3 -43 -6 -43 -3 0 -6 -12 -6 -27 -1 -16 -4 -51 -7 -79 -38 -342
-54 -854 -34 -1119 14 -186 17 -221 24 -245 3 -14 7 -41 8 -60 2 -19 4 -35 5
-35 1 0 3 -16 5 -35 2 -19 6 -46 9 -60 4 -14 9 -41 12 -60 4 -26 44 -204 59
-260 1 -3 5 -18 9 -35 9 -35 63 -201 76 -230 4 -11 20 -51 34 -88 14 -37 47
-110 72 -162 25 -52 45 -97 44 -101 -1 -4 2 -10 7 -13 11 -8 43 -61 50 -83 3
-10 9 -18 14 -18 5 0 9 -5 9 -11 0 -23 147 -230 243 -342 228 -267 519 -493
848 -660 135 -68 260 -127 271 -127 4 0 31 -11 60 -24 44 -20 74 -31 118 -41
3 -1 19 -7 35 -14 17 -7 39 -14 50 -15 11 -2 38 -8 60 -14 56 -15 210 -41 281
-47 237 -20 813 -26 1034 -11 236 16 269 20 497 62 16 3 46 10 68 15 22 5 49
11 60 14 47 9 112 28 140 40 17 8 44 17 60 21 17 4 35 9 40 13 6 3 12 6 15 7
14 3 69 26 95 41 17 9 31 16 33 15 5 -4 127 61 134 72 4 6 8 8 8 3 0 -4 19 5
43 20 90 57 122 78 135 91 7 6 17 12 21 12 4 0 16 8 27 18 10 9 37 30 59 47
22 16 45 34 51 40 6 5 32 28 58 50 27 22 71 61 98 87 27 27 54 48 60 48 6 0 9
2 7 5 -3 2 106 118 242 257 137 139 250 250 252 248 2 -3 14 -22 26 -43 13
-21 28 -43 34 -50 15 -16 35 -47 44 -67 3 -8 12 -19 20 -23 7 -4 13 -14 13
-22 0 -7 3 -15 8 -17 4 -1 23 -28 42 -58 19 -30 37 -57 40 -60 3 -3 18 -23 35
-45 35 -47 153 -167 210 -212 122 -97 202 -156 232 -170 18 -8 33 -19 33 -23
0 -4 14 -13 30 -20 17 -7 30 -16 30 -19 0 -4 16 -13 35 -21 19 -8 35 -17 35
-20 0 -3 16 -12 35 -20 19 -8 35 -18 35 -22 0 -5 4 -6 10 -3 5 3 10 2 10 -3 0
-9 20 -18 44 -20 5 0 12 -4 15 -9 12 -16 340 -163 366 -163 6 0 23 -7 39 -15
16 -9 39 -17 50 -20 12 -2 21 -4 21 -5 0 -1 9 -3 20 -4 11 -2 40 -9 65 -16 25
-7 54 -14 65 -16 11 -1 34 -5 50 -8 34 -6 105 -16 150 -21 95 -12 355 -19 675
-18 310 0 429 3 675 15 17 1 33 7 37 13 5 6 8 5 8 -3 0 -7 3 -11 8 -9 4 3 34
8 67 12 80 8 113 13 225 32 91 14 107 18 148 27 9 2 40 9 67 16 51 11 225 68
280 91 17 6 35 13 40 15 6 1 33 12 60 25 28 12 55 23 61 24 6 2 27 10 47 20
19 9 41 18 49 19 7 2 27 9 43 16 17 7 53 23 80 35 l50 22 -1 731 c0 402 -3
734 -6 737 -2 3 -127 -56 -276 -130 -149 -74 -275 -135 -281 -135 -6 0 -19 -4
-29 -10 -33 -19 -150 -58 -156 -53 -3 4 -6 0 -6 -7 0 -7 -3 -11 -6 -7 -3 3
-25 -1 -47 -10 -23 -8 -53 -17 -67 -19 -14 -3 -50 -11 -80 -19 -30 -8 -67 -16
-82 -19 -69 -14 -80 -16 -105 -21 -16 -3 -50 -8 -78 -11 -27 -4 -55 -11 -62
-16 -7 -6 -14 -5 -18 2 -3 6 -11 7 -17 4 -12 -8 -32 -10 -178 -20 -160 -11
-409 -6 -510 11 -14 3 -43 7 -65 10 -82 12 -232 58 -305 93 -190 91 -348 260
-478 513 -41 80 -108 237 -117 274 -1 6 -5 17 -8 25 -3 8 -11 35 -18 60 -7 25
-14 50 -15 55 -9 29 -45 191 -50 223 -3 20 -7 39 -9 42 -2 3 -6 34 -10 69 -4
34 -8 72 -11 84 -25 128 -25 621 0 777 3 14 7 45 10 70 3 25 8 56 11 70 9 44
17 84 20 105 7 47 59 243 74 280 5 11 21 54 36 95 36 95 67 164 77 168 4 2 8
11 8 21 0 9 4 21 9 27 6 5 21 30 35 56 31 58 119 182 163 228 18 19 33 38 33
43 0 4 4 6 8 3 5 -3 14 5 21 17 15 27 148 134 216 173 28 16 50 27 50 26 0 -2
11 1 25 6 14 5 27 10 30 10 3 0 18 5 33 11 28 11 48 14 197 30 85 9 722 7 760
-3 14 -3 41 -8 61 -11 43 -6 161 -43 169 -53 3 -4 23 -16 44 -27 22 -11 55
-34 73 -51 18 -17 34 -30 35 -30 2 1 13 -8 25 -21 12 -13 20 -23 17 -23 -3 0
6 -10 19 -22 13 -13 39 -45 57 -73 19 -27 36 -52 39 -55 3 -3 12 -15 19 -27 6
-13 18 -33 25 -45 6 -13 14 -25 17 -28 18 -18 229 -445 220 -445 -1 0 14 -32
34 -71 20 -39 36 -74 36 -78 0 -4 9 -26 19 -49 27 -61 140 -329 206 -492 31
-77 65 -159 76 -182 10 -24 19 -47 19 -53 0 -6 4 -18 9 -28 5 -9 13 -28 19
-42 5 -14 19 -46 31 -72 12 -26 21 -50 21 -52 0 -3 5 -17 11 -33 6 -15 9 -28
8 -28 -1 0 4 -11 11 -25 8 -14 15 -27 15 -30 1 -3 7 -18 13 -33 7 -16 12 -30
12 -31 0 -2 8 -21 17 -42 9 -22 17 -41 18 -44 1 -3 8 -18 15 -35 7 -16 14 -34
16 -40 1 -8 118 -297 167 -415 5 -14 11 -29 13 -35 2 -10 44 -113 69 -170 15
-35 39 -98 41 -105 0 -3 6 -16 11 -30 43 -98 165 -407 166 -417 0 -7 4 -13 9
-13 4 0 8 -8 8 -18 0 -10 7 -28 16 -40 8 -12 13 -22 10 -22 -5 0 4 -23 39
-105 7 -16 25 -61 40 -100 16 -38 37 -90 48 -115 11 -24 20 -49 22 -55 1 -5 7
-23 14 -40 7 -16 33 -82 58 -145 25 -63 54 -135 65 -160 11 -24 21 -49 23 -55
3 -14 24 -66 36 -90 5 -12 11 -27 13 -35 1 -8 10 -31 19 -50 13 -30 24 -57 32
-80 5 -16 27 -68 35 -85 5 -11 19 -45 31 -75 11 -30 26 -66 32 -80 5 -14 11
-29 13 -35 1 -5 8 -24 15 -42 12 -31 9 -40 -99 -255 -62 -123 -112 -230 -112
-236 0 -7 -4 -12 -9 -12 -5 0 -13 -10 -17 -22 -7 -24 -103 -199 -113 -208 -3
-3 -12 -17 -20 -32 -8 -15 -22 -37 -33 -47 -10 -11 -18 -24 -18 -30 0 -5 -3
-11 -8 -13 -4 -1 -20 -20 -36 -41 -100 -135 -252 -260 -404 -334 -54 -26 -99
-47 -102 -46 -3 1 -20 -5 -37 -12 -18 -8 -33 -12 -33 -10 0 3 -12 0 -27 -6
-16 -6 -39 -13 -53 -15 -14 -3 -47 -9 -75 -14 -94 -19 -170 -22 -523 -25 -195
-2 -360 -6 -367 -9 -10 -4 -13 -129 -13 -665 0 -364 3 -661 6 -661 4 0 39 -5
77 -10 39 -6 86 -12 105 -15 19 -3 69 -10 110 -16 41 -6 93 -12 115 -14 22 -2
54 -6 71 -10 17 -3 51 -7 75 -8 25 -2 49 -6 54 -9 13 -7 501 -3 535 5 14 3 52
9 85 12 92 11 189 31 315 65 25 7 56 14 70 17 13 2 29 8 35 13 5 4 13 8 18 8
18 1 147 46 205 73 35 16 65 29 68 29 16 0 239 119 320 171 91 58 234 159 260
184 6 5 30 26 54 45 78 64 328 320 311 320 -3 0 -1 4 5 8 19 12 111 136 180
242 61 94 123 216 174 340 13 30 32 75 43 100 11 25 21 47 22 50 5 15 19 49
31 77 8 17 14 34 14 37 0 3 8 25 19 49 10 23 24 56 31 72 7 17 14 35 14 40 1
6 9 24 18 41 10 17 14 34 11 38 -4 3 -2 6 4 6 5 0 10 6 10 13 0 10 77 206 103
262 5 11 33 79 61 150 28 72 54 135 57 140 4 6 8 19 9 29 2 11 7 24 11 30 5 6
16 34 26 61 9 28 23 61 31 75 7 14 14 30 15 35 3 15 14 43 98 255 42 107 77
197 77 200 1 3 7 19 14 35 6 17 16 44 22 60 6 17 17 44 24 60 33 77 47 111 50
125 3 13 17 49 60 155 5 11 9 22 10 25 1 3 7 19 14 35 6 17 19 50 28 75 9 25
20 50 25 56 4 6 9 19 11 30 2 10 11 36 20 58 9 21 17 40 17 42 0 1 5 15 12 31
6 15 19 48 28 73 30 82 131 345 140 365 16 35 120 306 120 312 0 3 6 19 14 36
18 42 81 204 94 242 20 58 102 267 109 278 4 7 8 17 9 23 3 17 113 307 124
326 5 10 10 22 10 27 0 5 5 22 12 38 6 15 12 30 12 33 1 3 4 10 7 15 10 16 33
89 31 98 -1 4 3 7 8 7 6 0 10 6 10 13 0 11 80 228 100 272 5 11 34 85 64 165
29 80 63 168 74 196 12 29 18 55 15 58 -4 3 0 6 7 6 7 0 10 3 7 7 -4 3 -2 12
4 20 6 7 8 13 4 13 -4 0 -3 6 3 13 6 6 19 37 30 67 11 30 36 100 56 155 20 55
40 109 45 120 10 23 35 88 37 95 0 3 6 19 13 35 7 17 14 35 15 40 2 6 8 23 14
38 7 16 12 30 12 32 0 2 5 16 12 32 6 15 12 30 12 33 1 3 6 19 13 35 6 17 15
39 19 50 4 11 6 23 6 28 -1 4 2 7 8 7 5 0 7 7 4 15 -4 8 -2 15 4 15 5 0 13 12
16 28 6 23 44 128 71 197 4 11 9 25 11 30 1 6 17 48 35 95 18 46 32 90 32 97
0 7 4 13 8 13 3 0 9 10 12 23 2 12 21 67 42 122 20 55 37 105 39 110 1 6 4 15
7 20 4 6 14 35 24 65 10 30 20 60 24 65 3 6 6 17 8 25 1 8 7 23 12 35 23 44
172 470 186 534 3 9 7 26 10 37 8 27 -14 32 -265 50 -47 3 -409 7 -805 8
l-719 1 -33 -105 c-18 -58 -36 -112 -40 -120 -3 -8 -7 -19 -8 -25 -2 -5 -35
-109 -75 -229 -40 -120 -73 -224 -75 -230 -1 -6 -5 -18 -8 -26 -7 -19 -30 -92
-33 -105 -1 -5 -18 -56 -37 -112 -19 -57 -33 -103 -30 -103 3 0 1 -6 -4 -12
-6 -7 -14 -26 -18 -43 -10 -34 -10 -35 -18 -55 -3 -8 -45 -136 -93 -285 -48
-148 -109 -337 -136 -420 -27 -82 -51 -157 -53 -165 -2 -8 -23 -76 -48 -150
-50 -152 -164 -506 -209 -650 -16 -52 -34 -103 -39 -113 -5 -10 -7 -22 -4 -27
4 -6 1 -10 -4 -10 -6 0 -10 -3 -10 -7 1 -5 0 -10 -1 -13 -1 -3 -3 -12 -5 -20
-1 -8 -24 -80 -50 -159 -26 -80 -48 -149 -49 -155 -3 -15 -55 -176 -66 -201
-11 -28 -113 -347 -117 -366 -1 -9 -8 -29 -15 -45 -6 -16 -12 -36 -13 -44 -1
-9 -8 -27 -15 -40 -7 -14 -13 -27 -12 -30 1 -4 -76 -256 -98 -320 -5 -14 -16
-52 -26 -85 -10 -33 -23 -68 -30 -78 -11 -17 -12 -16 -17 5 -2 13 -5 46 -6 73
-4 101 -9 136 -35 255 -15 67 -23 98 -76 290 -18 63 -33 120 -35 125 -1 6 -5
17 -8 25 -4 12 -43 151 -51 185 -2 12 -31 106 -57 189 -11 33 -19 67 -19 76 0
9 -3 20 -7 24 -5 4 -8 11 -9 14 0 4 -8 34 -19 67 -10 33 -19 65 -21 70 -2 11
-20 67 -80 260 -21 66 -39 125 -39 130 0 6 -3 15 -7 20 -3 6 -12 30 -19 55
-15 55 -14 52 -22 70 -17 44 -167 521 -167 533 0 4 -7 21 -15 37 -8 16 -15 31
-15 32 1 2 -1 10 -4 18 -43 134 -58 181 -58 187 0 5 -4 16 -10 26 -5 10 -11
26 -13 35 -2 9 -19 64 -38 122 -19 58 -90 274 -157 480 -67 206 -133 407 -147
447 -13 40 -26 80 -28 90 -2 10 -4 19 -5 21 -2 1 -3 5 -5 10 -1 4 -7 20 -13
35 -7 16 -12 31 -12 34 0 8 -137 429 -150 463 -10 23 -16 25 -78 26 -37 1
-119 4 -182 8 -63 4 -146 8 -185 11 -38 2 -119 6 -180 9 -60 3 -146 8 -190 11
-44 3 -125 7 -179 10 -54 2 -101 7 -104 10 -3 3 -11 0 -19 -6 -7 -6 -13 -8
-13 -3 0 5 -19 10 -43 10 -23 1 -89 4 -147 8 -131 7 -463 18 -592 20 -54 0
-98 3 -98 6 0 8 -673 4 -795 -5 -118 -8 -160 -12 -160 -15 0 -1 -18 -3 -40 -5
-47 -3 -98 -11 -157 -24 -24 -6 -54 -12 -68 -15 -32 -5 -180 -45 -200 -53 -8
-3 -26 -8 -40 -10 -14 -2 -26 -8 -28 -14 -2 -5 -12 -9 -22 -9 -20 0 -95 -27
-167 -60 -24 -11 -47 -20 -52 -20 -6 0 -31 -11 -57 -25 -26 -14 -52 -25 -58
-25 -7 0 -18 -6 -25 -12 -6 -7 -15 -13 -19 -13 -7 -1 -63 -29 -152 -77 -81
-44 -234 -140 -242 -153 -5 -6 -8 -6 -8 0 0 6 -3 6 -8 -1 -4 -5 -36 -30 -72
-55 -36 -24 -70 -48 -76 -54 -6 -5 -30 -26 -54 -45 -69 -57 -222 -211 -262
-265 -21 -27 -41 -54 -46 -60 -4 -5 -32 -55 -62 -110 -30 -55 -60 -106 -67
-113 -7 -7 -13 -18 -13 -24 0 -6 -9 -26 -21 -44 l-21 -34 -331 333 c-382 384
-463 457 -656 591 -100 69 -348 206 -374 206 -2 0 -22 8 -43 17 -22 9 -43 18
-49 19 -5 1 -29 9 -52 18 -24 8 -43 12 -43 8 0 -4 -4 -2 -8 5 -4 6 -21 15 -37
18 -40 8 -60 13 -60 15 0 1 -7 3 -15 5 -8 1 -62 14 -120 28 -97 24 -124 30
-205 43 -16 3 -37 7 -45 9 -8 2 -37 6 -65 10 -27 3 -66 8 -85 11 -98 14 -309
27 -455 27 -144 1 -385 -13 -475 -26 -19 -3 -57 -9 -85 -13 -123 -17 -158 -23
-265 -45 -135 -29 -322 -74 -350 -86 -14 -5 -26 -9 -55 -16 -5 -1 -14 -5 -20
-8 -9 -5 -22 -9 -80 -25 -37 -9 -192 -67 -201 -75 -6 -5 -19 -10 -30 -12 -10
-2 -37 -11 -59 -21 -56 -24 -117 -38 -150 -34 -43 5 -64 42 -70 128 -7 104
-15 150 -26 150 -5 0 -9 6 -9 13 0 24 -79 56 -160 65 -84 9 -476 8 -555 -1
-105 -12 -126 -16 -180 -27 -27 -6 -59 -13 -70 -15 -23 -4 -40 -8 -115 -29
-30 -9 -66 -19 -80 -22 -14 -4 -30 -11 -37 -16 -7 -5 -17 -7 -23 -3 -5 3 -10
1 -10 -4 0 -6 -3 -10 -8 -9 -4 1 -17 -3 -29 -10 -13 -7 -23 -11 -23 -8 0 8
-64 -21 -180 -79 -163 -82 -170 -86 -170 -96 0 -5 -5 -9 -11 -9 -12 0 -131
-79 -141 -94 -4 -6 -8 -8 -8 -3 0 4 -8 -1 -18 -10 -10 -10 -41 -37 -68 -59
-73 -62 -123 -112 -184 -184 -30 -36 -57 -67 -60 -70 -3 -3 -23 -27 -45 -55
-78 -99 -231 -254 -273 -276 -22 -12 -26 -11 -47 15 -21 26 -63 119 -90 196
-1 3 -5 12 -8 20 -12 30 -78 252 -84 284 -2 10 -12 53 -23 95 -21 84 -31 130
-32 149 -1 6 -5 12 -9 12 -4 0 -6 7 -5 17 2 9 -5 46 -15 82 -9 36 -20 78 -23
94 l-6 27 -1330 0 c-731 0 -1331 -3 -1333 -7 -3 -5 -12 -51 -21 -103 -9 -52
-18 -106 -21 -120 -3 -14 -7 -42 -10 -63 -3 -21 -7 -48 -10 -60 -8 -36 -15
-79 -22 -129 -3 -27 -10 -48 -15 -48 -5 0 -6 -4 -3 -10 3 -5 -2 -48 -10 -96
-16 -86 -23 -127 -24 -152 -1 -10 -7 -9 -24 5 -28 22 -125 104 -141 119 -6 5
-45 39 -86 74 -41 35 -79 68 -85 74 -5 6 -32 29 -60 51 -27 22 -59 48 -70 58
-11 9 -45 35 -75 57 -30 21 -59 43 -65 47 -23 19 -192 122 -220 134 -16 8 -32
16 -35 19 -9 10 -159 79 -185 86 -14 3 -25 10 -25 16 0 5 -4 7 -8 4 -5 -3 -20
1 -35 9 -15 8 -27 12 -27 9 0 -2 -13 2 -29 11 -17 8 -38 16 -48 18 -10 1 -24
6 -30 10 -7 5 -13 6 -13 3 0 -3 -11 -1 -25 4 -14 5 -36 12 -48 15 -12 2 -53
12 -92 21 -38 8 -86 17 -105 20 -19 2 -44 6 -55 9 -41 9 -370 25 -378 19z
m721 -1399 c42 -2 102 -9 132 -16 30 -6 64 -13 75 -14 11 -1 27 -5 35 -8 8 -3
51 -18 95 -32 44 -15 112 -42 152 -61 39 -19 74 -34 78 -34 4 0 41 -23 83 -51
81 -54 222 -185 222 -205 0 -7 3 -14 8 -16 11 -5 64 -78 56 -78 -4 0 0 -8 9
-18 13 -14 68 -122 73 -142 1 -7 15 -42 24 -65 5 -11 14 -40 21 -65 6 -25 14
-49 18 -55 4 -5 8 -26 10 -45 2 -19 6 -37 10 -40 3 -3 7 -16 8 -30 1 -14 9
-61 17 -105 8 -44 17 -102 20 -130 3 -27 8 -75 12 -105 3 -30 7 -68 9 -85 23
-196 23 -970 0 -1160 -2 -16 -6 -52 -9 -80 -7 -64 -15 -119 -27 -173 -5 -24
-7 -48 -4 -53 4 -5 1 -9 -6 -9 -7 0 -10 -3 -7 -6 5 -4 -3 -41 -26 -119 -2 -5
-7 -23 -11 -39 -4 -16 -14 -41 -21 -55 -8 -14 -14 -34 -14 -43 0 -10 -5 -18
-10 -18 -6 0 -9 -3 -8 -7 3 -13 -52 -114 -95 -173 -89 -121 -249 -247 -371
-291 -20 -7 -36 -17 -36 -22 0 -4 -4 -6 -9 -3 -4 3 -26 -3 -47 -13 -32 -16
-92 -35 -139 -45 -5 -2 -35 -10 -65 -19 -30 -9 -73 -19 -95 -22 -22 -3 -58 -9
-80 -12 -58 -9 -272 -8 -330 1 -27 4 -60 9 -71 11 -81 12 -258 88 -368 158
-88 55 -209 174 -293 287 -34 47 -125 195 -129 210 -2 9 -45 105 -56 124 -30
55 -126 392 -114 403 3 4 2 11 -3 17 -9 11 -12 27 -26 126 -27 198 -37 539
-21 725 4 39 8 88 10 111 2 22 7 62 11 90 3 27 8 67 11 89 4 40 11 80 14 80 1
0 3 16 5 35 2 19 6 46 9 60 2 14 10 52 16 85 7 33 21 94 32 135 11 41 22 81
23 90 2 8 4 16 5 18 2 1 3 5 4 10 4 17 60 160 75 187 8 17 16 32 16 35 5 25
123 222 145 240 3 3 21 25 40 49 44 57 161 171 174 171 2 0 15 10 28 21 48 43
183 114 263 138 22 7 49 16 60 21 33 14 125 31 205 36 41 3 76 7 79 9 2 3 8 2
13 -1 4 -3 43 -7 86 -9z m8946 -24 c32 -6 62 -8 67 -6 4 3 10 1 13 -4 5 -8 56
-21 79 -21 4 0 21 -7 37 -15 16 -8 31 -15 32 -14 5 3 89 -42 133 -70 59 -37
193 -148 244 -201 74 -76 152 -189 207 -297 28 -57 50 -103 48 -103 -3 0 3
-14 12 -31 9 -17 18 -43 20 -57 3 -14 14 -53 26 -86 11 -34 21 -74 23 -91 2
-16 4 -30 5 -30 2 0 4 -9 6 -20 2 -11 6 -33 9 -50 3 -16 7 -43 10 -60 2 -16 6
-41 9 -55 31 -149 38 -782 11 -1015 -2 -22 -6 -66 -7 -97 -2 -32 -5 -58 -8
-58 -3 0 -5 -15 -4 -32 0 -18 -2 -37 -5 -42 -2 -6 -5 -19 -6 -30 -6 -63 -17
-132 -25 -147 -5 -9 -7 -19 -4 -22 5 -5 -25 -136 -53 -227 -10 -30 -18 -57
-18 -60 -3 -17 -21 -63 -46 -118 -16 -35 -29 -66 -29 -69 0 -3 -9 -17 -20 -33
-11 -15 -17 -30 -13 -34 3 -3 1 -6 -5 -6 -7 0 -12 -5 -12 -10 0 -29 -164 -216
-230 -263 -62 -43 -125 -79 -178 -101 -101 -41 -99 -41 -139 -50 -10 -3 -18
-5 -18 -6 0 -2 -24 -7 -69 -15 -21 -4 -48 -9 -60 -11 -11 -3 -28 -7 -36 -8
-75 -17 -423 -25 -505 -12 -169 27 -191 31 -269 58 -134 45 -261 123 -350 213
-74 75 -161 202 -202 295 -46 103 -87 220 -97 275 -2 11 -7 27 -10 35 -3 8 -8
29 -11 45 -4 17 -8 39 -10 50 -3 11 -7 34 -9 50 -3 17 -10 59 -16 95 -21 133
-23 151 -36 355 -20 302 -4 871 29 1065 3 14 7 43 11 65 5 36 9 58 20 120 2
11 4 20 5 20 1 0 3 9 5 20 2 11 6 30 9 43 3 12 8 30 10 41 12 53 60 192 86
248 17 36 30 66 30 69 0 2 24 41 53 87 55 84 152 191 222 244 66 50 258 139
320 148 6 1 12 3 15 4 14 7 89 20 220 39 76 11 402 6 474 -7z"/>
</g>
</svg>
