<?xml version="1.0" standalone="no"?>
<!DOCTYPE svg PUBLIC "-//W3C//DTD SVG 20010904//EN"
 "http://www.w3.org/TR/2001/REC-SVG-20010904/DTD/svg10.dtd">
<svg version="1.0" xmlns="http://www.w3.org/2000/svg"
 width="846.000000pt" height="222.000000pt" viewBox="0 0 846.000000 222.000000"
 preserveAspectRatio="xMidYMid meet">
<metadata>
Created by potrace 1.16, written by Peter Selinger 2001-2019
</metadata>
<g transform="translate(0.000000,222.000000) scale(0.100000,-0.100000)"
fill="#337ab7" stroke="none">
<path d="M983 2200 c-468 -66 -828 -418 -944 -920 -29 -124 -36 -358 -15 -478
57 -328 272 -604 565 -727 125 -53 193 -67 353 -72 112 -4 171 -1 250 12 205
34 417 121 546 225 l62 50 0 -115 0 -115 310 0 c240 0 312 3 315 13 2 6 9 142
15 302 6 159 13 291 14 292 1 2 43 6 92 9 l89 6 110 -307 c61 -169 115 -310
122 -312 6 -3 156 24 331 59 l320 63 -173 309 -173 308 78 59 c43 33 103 90
132 126 52 66 53 67 56 38 12 -135 75 -307 156 -429 245 -368 722 -511 1131
-339 186 78 365 249 461 440 19 38 35 61 38 52 3 -8 12 -41 21 -74 39 -143
134 -304 240 -410 204 -205 495 -297 790 -251 114 17 256 56 333 91 47 22 52
27 52 57 0 18 5 169 11 336 6 167 9 305 7 307 -3 3 -29 -8 -59 -24 -30 -17
-97 -44 -149 -62 -86 -30 -106 -33 -215 -33 -117 -1 -122 0 -188 32 -118 58
-162 146 -155 310 3 78 9 108 30 154 39 84 107 151 199 197 100 50 188 65 340
58 l117 -5 11 146 c7 81 14 154 15 162 1 8 98 -178 215 -415 l213 -430 -7
-413 -8 -412 378 0 377 0 -6 83 c-3 45 -8 233 -11 417 l-6 335 341 555 c288
469 338 556 323 562 -22 8 -672 52 -678 46 -3 -2 -59 -139 -126 -304 -66 -164
-124 -302 -128 -307 -4 -4 -58 131 -121 300 -62 170 -114 310 -116 312 -2 2
-135 -13 -296 -33 -161 -20 -299 -36 -305 -36 -7 0 -13 9 -13 21 0 59 -306
112 -518 90 -154 -16 -250 -42 -369 -101 -220 -108 -376 -279 -469 -514 l-27
-69 -31 90 c-121 347 -424 560 -826 580 -356 17 -664 -154 -844 -472 l-44 -76
-16 72 c-51 225 -224 411 -464 499 -148 54 -218 64 -437 64 -278 -1 -496 -32
-691 -98 l-69 -23 -6 -129 c-4 -71 -7 -232 -8 -359 -1 -126 -5 -235 -9 -242
-5 -8 -132 -15 -437 -23 -237 -7 -433 -15 -436 -18 -4 -4 -10 -102 -14 -218
l-7 -211 108 -6 c59 -4 138 -7 176 -7 l68 0 0 -29 c0 -66 -12 -91 -51 -112
-60 -30 -172 -44 -241 -30 -249 52 -347 418 -180 677 105 163 290 242 537 231
68 -4 153 -15 195 -25 41 -11 77 -16 80 -11 9 13 43 526 37 542 -8 22 -124 64
-236 87 -115 23 -342 34 -438 20z m1741 -539 c94 -42 140 -123 140 -246 1 -64
-4 -88 -21 -121 -50 -93 -160 -153 -296 -162 l-78 -5 7 159 c4 88 10 211 13
274 l6 115 40 7 c58 9 142 0 189 -21z m1752 -232 c99 -48 156 -147 162 -284 5
-104 -16 -175 -72 -248 -73 -96 -225 -131 -331 -76 -105 53 -172 192 -163 337
8 128 61 217 160 266 68 34 180 37 244 5z"/>
</g>
</svg>
